<?xml version="1.0" standalone="no"?>
<!DOCTYPE svg PUBLIC "-//W3C//DTD SVG 20010904//EN"
 "http://www.w3.org/TR/2001/REC-SVG-20010904/DTD/svg10.dtd">
<svg version="1.0" xmlns="http://www.w3.org/2000/svg"
 width="512.000000pt" height="512.000000pt" viewBox="0 0 512.000000 512.000000"
 preserveAspectRatio="xMidYMid meet">
<metadata>
Created by potrace 1.14, written by Peter Selinger 2001-2017
</metadata>
<g transform="translate(0.000000,512.000000) scale(0.100000,-0.100000)"
fill="#000000" stroke="none">
<path d="M1760 5106 c-80 -23 -142 -58 -206 -119 -145 -135 -190 -347 -113
-528 l21 -49 -727 -2027 -727 -2028 4 -70 c10 -159 124 -273 282 -283 68 -4
80 -1 266 66 107 38 443 158 745 266 577 206 595 215 595 272 0 32 -42 74 -73
74 -13 0 -320 -106 -683 -236 l-658 -237 -42 46 c-39 44 -64 104 -64 157 0 24
48 170 60 184 5 4 34 -2 67 -14 80 -31 251 -39 343 -16 220 55 400 233 455
451 19 76 19 224 0 300 -50 197 -221 383 -402 436 -24 7 -43 13 -43 13 0 6
380 1049 383 1052 2 2 24 -3 48 -12 66 -25 248 -30 329 -10 220 55 400 233
455 451 19 76 19 224 0 300 -43 170 -169 326 -322 400 -45 22 -82 44 -83 50 0
5 14 49 31 97 l31 87 27 -13 c90 -47 380 -218 453 -267 92 -62 126 -71 164
-44 19 13 27 10 97 -41 71 -51 76 -57 67 -79 -16 -41 3 -68 97 -141 471 -367
880 -820 1258 -1394 166 -252 386 -623 375 -633 -3 -3 -484 -176 -1070 -386
-586 -210 -1075 -386 -1087 -393 -12 -6 -27 -24 -34 -41 -16 -37 2 -75 44 -95
26 -12 51 -5 340 99 381 136 644 230 1337 479 294 106 554 199 578 207 40 14
48 14 108 -6 87 -28 212 -29 296 0 240 81 376 330 313 574 -9 33 -55 132 -102
220 -585 1089 -1447 1993 -2503 2625 -198 119 -420 234 -489 254 -64 19 -177
19 -241 2z"/>
<path d="M2528 3366 c-255 -105 -370 -295 -314 -516 22 -87 84 -217 114 -241
35 -27 55 -24 157 25 231 113 325 287 270 501 -22 83 -84 213 -113 236 -31 24
-44 24 -114 -5z m62 -230 c39 -113 22 -214 -47 -277 -39 -37 -124 -89 -134
-83 -5 3 -18 37 -30 75 -29 96 -24 174 17 232 32 46 152 133 165 120 5 -5 18
-35 29 -67z"/>
<path d="M3072 2593 c-39 -16 -68 -181 -52 -296 31 -219 162 -334 419 -368
101 -14 141 -5 159 36 17 36 35 182 29 233 -9 78 -75 116 -128 73 -21 -17 -25
-30 -29 -103 -6 -94 -2 -92 -105 -63 -121 34 -181 110 -191 241 -7 97 -3 101
91 79 69 -17 81 -17 104 -4 53 30 50 113 -6 138 -69 32 -246 52 -291 34z"/>
<path d="M1217 2478 c-63 -67 -113 -234 -105 -352 10 -144 105 -265 272 -346
147 -71 179 -64 236 56 68 144 78 301 26 407 -38 79 -135 166 -240 217 -47 23
-101 44 -120 47 -32 5 -40 1 -69 -29z m159 -179 c108 -68 144 -123 144 -221
-1 -83 -29 -164 -56 -160 -39 8 -130 78 -163 127 -32 48 -33 53 -29 130 5 77
27 155 46 155 4 0 30 -14 58 -31z"/>
<path d="M2280 2304 c-98 -25 -196 -81 -270 -152 -74 -71 -87 -105 -56 -147
11 -16 10 -26 -14 -79 -15 -34 -31 -76 -35 -93 -3 -18 -12 -33 -19 -33 -8 0
-26 -10 -41 -22 -27 -21 -27 -22 -22 -117 6 -117 32 -195 96 -294 84 -128 219
-225 366 -262 76 -19 224 -19 300 0 216 55 395 234 450 450 19 76 19 224 0
300 -55 216 -234 395 -450 450 -74 19 -232 18 -305 -1z"/>
</g>
</svg>
